<svg width="1512" height="4228" viewBox="0 0 1512 4228" fill="none" xmlns="http://www.w3.org/2000/svg">
<path fill-rule="evenodd" clip-rule="evenodd" d="M512.645 580.044C486.418 535.256 430.417 532.436 382.705 523.074C339.984 514.691 295.353 506.471 257.68 530.014C219.467 553.895 191.049 597.449 186.756 645.527C182.861 689.144 220.534 719.494 237.2 759.361C257.921 808.928 249.906 879.824 294.626 903.566C341.224 928.306 398.134 900.218 440.07 867.067C478.667 836.556 494.412 785.91 507.14 735.573C520.275 683.625 539.236 625.454 512.645 580.044Z" stroke="#CFCFF3" stroke-width="2"/>
<path fill-rule="evenodd" clip-rule="evenodd" d="M1309.54 39.855C1363.63 41.9513 1397.97 99.3187 1433.32 144.229C1464.97 184.442 1497.56 226.759 1498.42 279.848C1499.29 333.699 1477.39 388.446 1437.79 420.365C1401.87 449.322 1353.88 426.944 1309.54 432.112C1254.4 438.538 1196.97 487.379 1150.75 453.815C1102.6 418.841 1094.76 342.902 1099.88 279.848C1104.58 221.814 1139.91 176.372 1176.68 134.283C1214.62 90.8472 1254.69 37.7294 1309.54 39.855Z" stroke="#CFCFF3" stroke-width="2"/>
<path fill-rule="evenodd" clip-rule="evenodd" d="M1276.51 982.393C1304.22 961.835 1340.4 976.739 1372.95 985.029C1402.09 992.451 1432.4 1000.55 1450.43 1026.69C1468.73 1053.21 1475.93 1089.27 1466.74 1121.01C1458.4 1149.8 1427.01 1157.8 1406.57 1178.09C1381.16 1203.32 1368.67 1250.62 1334.45 1252.34C1298.8 1254.12 1269.71 1219.36 1251.35 1185.86C1234.46 1155.03 1237.04 1118.25 1241.45 1082.57C1246 1045.74 1248.41 1003.24 1276.51 982.393Z" stroke="#CFCFF3" stroke-width="2"/>
<path fill-rule="evenodd" clip-rule="evenodd" d="M1186.23 2124.81C1226.9 2128.3 1262.93 2147.93 1299.67 2167.36C1341.46 2189.45 1390.45 2203.32 1415.62 2246.07C1441.89 2290.71 1447.25 2348.59 1436.89 2400.5C1426.86 2450.77 1385.19 2482.65 1359.76 2525.9C1329.06 2578.12 1325.88 2662.11 1271.92 2681.06C1218.28 2699.89 1171.79 2633.19 1119.5 2610.26C1073.42 2590.05 1018.18 2592.49 982.846 2554.27C946.555 2515.02 933.489 2457.3 926.832 2401.88C920.232 2346.92 919.894 2288.22 945.124 2240.2C969.514 2193.77 1016.01 2168.3 1060.79 2146.88C1100.41 2127.92 1143.14 2121.12 1186.23 2124.81Z" stroke="#CFCFF3" stroke-width="2"/>
<path fill-rule="evenodd" clip-rule="evenodd" d="M241.707 2076.71C213.135 2073.49 185.907 2082.1 158.21 2090.47C126.709 2099.99 91.1707 2102.81 68.803 2128.96C45.4446 2156.27 35.0445 2195.67 36.2242 2233.1C37.3667 2269.36 62.5432 2297.25 75.1624 2330.77C90.3993 2371.25 82.8984 2429.94 118.085 2450.57C153.063 2471.08 192.977 2431.28 231.849 2422.63C266.105 2415.02 304.081 2424.38 332.976 2402.78C362.649 2380.6 378.369 2342.38 389.383 2304.87C400.304 2267.68 407.32 2227.02 395.392 2190.21C383.861 2154.62 354.592 2130.51 326.051 2109.43C300.799 2090.78 271.983 2080.14 241.707 2076.71Z" stroke="#CFCFF3" stroke-width="2"/>
<path fill-rule="evenodd" clip-rule="evenodd" d="M261.89 3835.73C229.353 3838.52 200.523 3854.24 171.123 3869.79C137.685 3887.48 98.4865 3898.59 78.355 3932.82C57.3319 3968.57 53.043 4014.91 61.3326 4056.48C69.3612 4096.74 102.696 4122.26 123.043 4156.89C147.612 4198.71 150.157 4265.96 193.328 4281.13C236.244 4296.21 273.447 4242.81 315.286 4224.44C352.157 4208.26 396.348 4210.21 424.623 4179.61C453.66 4148.18 464.115 4101.96 469.441 4057.58C474.722 4013.58 474.992 3966.58 454.805 3928.12C435.291 3890.94 398.084 3870.55 362.258 3853.39C330.56 3838.21 296.369 3832.77 261.89 3835.73Z" stroke="#CFCFF3" stroke-width="2"/>
<path fill-rule="evenodd" clip-rule="evenodd" d="M1052.82 3231.68C1081.04 3223.23 1109.7 3226.92 1138.8 3230.29C1171.9 3234.12 1208.04 3230.47 1234.48 3252.68C1262.09 3275.88 1278.51 3313.58 1283 3351.42C1287.35 3388.07 1266.27 3420.69 1258.68 3456.68C1249.5 3500.14 1265.93 3557.76 1233.7 3584.91C1201.66 3611.89 1155.52 3579.16 1115.15 3577.55C1079.58 3576.14 1042.83 3592.47 1010.53 3576.02C977.346 3559.13 955.759 3523.59 939.006 3487.9C922.394 3452.5 909.182 3412.91 915.589 3373.74C921.782 3335.88 947.539 3306.31 973.023 3279.93C995.571 3256.58 1022.91 3240.63 1052.82 3231.68Z" stroke="#CFCFF3" stroke-width="2"/>
<path fill-rule="evenodd" clip-rule="evenodd" d="M1228.91 1577.79C1261.6 1625.11 1242.74 1690.55 1233.33 1748.97C1224.89 1801.28 1215.57 1855.73 1178.59 1889.99C1141.07 1924.75 1088.54 1940.7 1040.97 1927.19C997.812 1914.93 983.321 1859.99 951.657 1825.55C912.289 1782.72 841.493 1764.74 836.025 1704.24C830.328 1641.19 879.054 1586.57 926.853 1551.09C970.847 1518.44 1025.28 1519.77 1078.25 1524.45C1132.92 1529.29 1195.78 1529.81 1228.91 1577.79Z" stroke="#CFCFF3" stroke-width="2"/>
<path fill-rule="evenodd" clip-rule="evenodd" d="M487.788 1600.29C458.367 1607.83 432.22 1582.43 407.194 1563.9C384.786 1547.31 361.589 1529.73 354.053 1501.27C346.408 1472.4 350.917 1439.39 367.997 1415.85C383.492 1394.49 412.324 1398.85 435.528 1388.96C464.377 1376.66 488.81 1341.14 518.181 1351.82C548.786 1362.94 563.124 1402.6 568.769 1437.39C573.965 1469.41 560.989 1499.55 546.787 1528.12C532.13 1557.6 517.618 1592.64 487.788 1600.29Z" stroke="#CFCFF3" stroke-width="2"/>
<path fill-rule="evenodd" clip-rule="evenodd" d="M327.374 3095.03C364.528 3082.82 405.428 3099.5 438.132 3122.31C472.177 3146.05 502.18 3180.58 511.595 3223.5C520.709 3265.05 508.68 3310.01 487.121 3345.65C468.47 3376.49 434.171 3388.22 403.112 3402.86C378.788 3414.31 353.725 3417.97 327.374 3420.9C297.518 3424.22 264.862 3438.66 239.547 3421.04C214.029 3403.28 211.209 3364.94 201.799 3333.52C192.365 3302.01 173.723 3269.15 184.822 3238.3C195.84 3207.68 234.152 3204.29 256.311 3182.02C283.149 3155.05 292.456 3106.49 327.374 3095.03Z" stroke="#CFCFF3" stroke-width="2"/>
<path fill-rule="evenodd" clip-rule="evenodd" d="M1095.53 3802.8C1075.88 3793.86 1054.23 3806.08 1036.93 3822.78C1018.92 3840.16 1003.04 3865.44 998.06 3896.87C993.238 3927.3 999.603 3960.22 1011.01 3986.32C1020.88 4008.9 1039.03 4017.49 1055.46 4028.2C1068.33 4036.59 1081.59 4039.27 1095.53 4041.42C1111.33 4043.85 1128.61 4054.42 1142 4041.52C1155.51 4028.52 1157 4000.44 1161.98 3977.43C1166.97 3954.36 1176.83 3930.3 1170.96 3907.71C1165.13 3885.29 1144.86 3882.81 1133.13 3866.5C1118.93 3846.75 1114.01 3811.2 1095.53 3802.8Z" stroke="#CFCFF3" stroke-width="2"/>
<ellipse rx="104.464" ry="95.4597" transform="matrix(0.101378 0.994848 -0.992569 0.121683 319.646 1537.92)" fill="url(#paint0_radial_123_1548)" fill-opacity="0.3"/>
<ellipse rx="95.616" ry="104.321" transform="matrix(0.982798 0.184686 -0.154331 0.988019 935.561 2797.42)" fill="url(#paint1_radial_123_1548)" fill-opacity="0.4"/>
<ellipse rx="124.296" ry="135.611" transform="matrix(0.982798 0.184686 -0.154331 0.988019 1128.55 3397.77)" fill="url(#paint2_radial_123_1548)" fill-opacity="0.1"/>
<ellipse rx="99.055" ry="91.0059" transform="matrix(0.186014 -0.982547 0.97503 0.222072 377.15 3850.69)" fill="url(#paint3_radial_123_1548)" fill-opacity="0.4"/>
<ellipse rx="21.453" ry="23.512" transform="matrix(-0.997464 0.0711685 -0.0592031 -0.998246 1134.81 3857.17)" fill="url(#paint4_radial_123_1548)" fill-opacity="0.4"/>
<ellipse rx="56.0366" ry="61.4149" transform="matrix(-0.997464 0.0711685 -0.0592031 -0.998246 67.2261 4163.18)" fill="url(#paint5_radial_123_1548)" fill-opacity="0.4"/>
<ellipse rx="21.4667" ry="23.4995" transform="matrix(0.99366 0.112427 -0.0936347 0.995607 951.623 2501.32)" fill="url(#paint6_radial_123_1548)" fill-opacity="0.4"/>
<ellipse rx="21.453" ry="23.512" transform="matrix(-0.997464 0.0711685 -0.0592031 -0.998246 905.322 1403.88)" fill="url(#paint7_radial_123_1548)" fill-opacity="0.4"/>
<ellipse rx="21.5727" ry="23.4022" transform="matrix(0.964057 0.265697 -0.223302 0.974749 169.598 467.35)" fill="url(#paint8_radial_123_1548)" fill-opacity="0.4"/>
<ellipse rx="130.597" ry="143.131" transform="matrix(-0.997464 0.0711685 -0.0592031 -0.998246 445.854 3031.17)" fill="url(#paint9_radial_123_1548)" fill-opacity="0.4"/>
<ellipse cx="232.867" cy="880.077" rx="156.932" ry="172.129" fill="url(#paint10_radial_123_1548)" fill-opacity="0.4"/>
<ellipse rx="99.6164" ry="109.074" transform="matrix(-0.994396 -0.105722 0.0880305 -0.996118 415.984 473.635)" fill="url(#paint11_radial_123_1548)" fill-opacity="0.4"/>
<ellipse rx="53.601" ry="50.3285" transform="matrix(0.368175 0.929756 -0.902788 0.430085 1284.35 71.4814)" fill="url(#paint12_radial_123_1548)" fill-opacity="0.4"/>
<ellipse rx="104.464" ry="95.4597" transform="matrix(0.101378 0.994848 -0.992569 0.121683 1329.31 1191.99)" fill="url(#paint13_radial_123_1548)" fill-opacity="0.4"/>
<ellipse rx="70.8733" ry="76.8853" transform="matrix(-0.964129 0.265436 -0.223078 -0.974801 186.04 2390.83)" fill="url(#paint14_radial_123_1548)" fill-opacity="0.4"/>
<ellipse cx="897.296" cy="1901.28" rx="165.791" ry="181.846" fill="url(#paint15_radial_123_1548)" fill-opacity="0.4"/>
<defs>
<radialGradient id="paint0_radial_123_1548" cx="0" cy="0" r="1" gradientUnits="userSpaceOnUse" gradientTransform="translate(136.361 144.04) rotate(-128.204) scale(170.627 174.94)">
<stop stop-color="#56BFCF"/>
<stop offset="1" stop-color="#56BFCF" stop-opacity="0"/>
</radialGradient>
<radialGradient id="paint1_radial_123_1548" cx="0" cy="0" r="1" gradientUnits="userSpaceOnUse" gradientTransform="translate(124.812 157.41) rotate(-123.392) scale(175.498 170.13)">
<stop stop-color="#56BFCF"/>
<stop offset="1" stop-color="#56BFCF" stop-opacity="0"/>
</radialGradient>
<radialGradient id="paint2_radial_123_1548" cx="0" cy="0" r="1" gradientUnits="userSpaceOnUse" gradientTransform="translate(162.248 204.625) rotate(-123.392) scale(228.138 221.159)">
<stop stop-color="#56BFCF"/>
<stop offset="1" stop-color="#56BFCF" stop-opacity="0"/>
</radialGradient>
<radialGradient id="paint3_radial_123_1548" cx="0" cy="0" r="1" gradientUnits="userSpaceOnUse" gradientTransform="translate(129.301 137.319) rotate(-128.054) scale(162.333 166.223)">
<stop stop-color="#56BFCF"/>
<stop offset="1" stop-color="#56BFCF" stop-opacity="0"/>
</radialGradient>
<radialGradient id="paint4_radial_123_1548" cx="0" cy="0" r="1" gradientUnits="userSpaceOnUse" gradientTransform="translate(28.0035 35.4774) rotate(-123.274) scale(39.5002 38.2234)">
<stop stop-color="#56BFCF"/>
<stop offset="1" stop-color="#56BFCF" stop-opacity="0"/>
</radialGradient>
<radialGradient id="paint5_radial_123_1548" cx="0" cy="0" r="1" gradientUnits="userSpaceOnUse" gradientTransform="translate(73.1471 92.6693) rotate(-123.274) scale(103.177 99.8421)">
<stop stop-color="#56BFCF"/>
<stop offset="1" stop-color="#56BFCF" stop-opacity="0"/>
</radialGradient>
<radialGradient id="paint6_radial_123_1548" cx="0" cy="0" r="1" gradientUnits="userSpaceOnUse" gradientTransform="translate(28.0215 35.4585) rotate(-123.305) scale(39.4931 38.2344)">
<stop stop-color="#56BFCF"/>
<stop offset="1" stop-color="#56BFCF" stop-opacity="0"/>
</radialGradient>
<radialGradient id="paint7_radial_123_1548" cx="0" cy="0" r="1" gradientUnits="userSpaceOnUse" gradientTransform="translate(28.0035 35.4774) rotate(-123.274) scale(39.5002 38.2234)">
<stop stop-color="#56BFCF"/>
<stop offset="1" stop-color="#56BFCF" stop-opacity="0"/>
</radialGradient>
<radialGradient id="paint8_radial_123_1548" cx="0" cy="0" r="1" gradientUnits="userSpaceOnUse" gradientTransform="translate(28.1598 35.3117) rotate(-123.544) scale(39.438 38.3175)">
<stop stop-color="#56BFCF"/>
<stop offset="1" stop-color="#56BFCF" stop-opacity="0"/>
</radialGradient>
<radialGradient id="paint9_radial_123_1548" cx="0" cy="0" r="1" gradientUnits="userSpaceOnUse" gradientTransform="translate(170.474 215.972) rotate(-123.274) scale(240.461 232.688)">
<stop stop-color="#56BFCF"/>
<stop offset="1" stop-color="#56BFCF" stop-opacity="0"/>
</radialGradient>
<radialGradient id="paint10_radial_123_1548" cx="0" cy="0" r="1" gradientUnits="userSpaceOnUse" gradientTransform="translate(280.785 967.675) rotate(-123.253) scale(289.108 279.676)">
<stop stop-color="#56BFCF"/>
<stop offset="1" stop-color="#56BFCF" stop-opacity="0"/>
</radialGradient>
<radialGradient id="paint11_radial_123_1548" cx="0" cy="0" r="1" gradientUnits="userSpaceOnUse" gradientTransform="translate(130.034 164.582) rotate(-123.299) scale(183.297 177.439)">
<stop stop-color="#56BFCF"/>
<stop offset="1" stop-color="#56BFCF" stop-opacity="0"/>
</radialGradient>
<radialGradient id="paint12_radial_123_1548" cx="0" cy="0" r="1" gradientUnits="userSpaceOnUse" gradientTransform="translate(69.9677 75.941) rotate(-127.451) scale(89.0449 90.6837)">
<stop stop-color="#56BFCF"/>
<stop offset="1" stop-color="#56BFCF" stop-opacity="0"/>
</radialGradient>
<radialGradient id="paint13_radial_123_1548" cx="0" cy="0" r="1" gradientUnits="userSpaceOnUse" gradientTransform="translate(136.361 144.04) rotate(-128.204) scale(170.627 174.94)">
<stop stop-color="#56BFCF"/>
<stop offset="1" stop-color="#56BFCF" stop-opacity="0"/>
</radialGradient>
<radialGradient id="paint14_radial_123_1548" cx="0" cy="0" r="1" gradientUnits="userSpaceOnUse" gradientTransform="translate(92.514 116.013) rotate(-123.543) scale(129.568 125.886)">
<stop stop-color="#56BFCF"/>
<stop offset="1" stop-color="#56BFCF" stop-opacity="0"/>
</radialGradient>
<radialGradient id="paint15_radial_123_1548" cx="0" cy="0" r="1" gradientUnits="userSpaceOnUse" gradientTransform="translate(947.92 1993.82) rotate(-123.253) scale(305.429 295.464)">
<stop stop-color="#56BFCF"/>
<stop offset="1" stop-color="#56BFCF" stop-opacity="0"/>
</radialGradient>
</defs>
</svg>
